<svg xmlns="http://www.w3.org/2000/svg" width="55.152" height="54.917" viewBox="0 0 55.152 54.917">
  <g id="Group_289" data-name="Group 289" transform="translate(-2391.001 -1872.808)">
    <path id="Path_137" data-name="Path 137" d="M48.565,447.59H4.385V403.84H7.22v40.916H48.565Z" transform="translate(2391 1475)" fill="#002659"/>
    <path id="Path_138" data-name="Path 138" d="M12.976,440.192l-.439-2.8.219,1.4-.221-1.4c.21-.034,21.17-3.661,30.32-28.425l2.659.983c-9.747,26.381-31.612,30.1-32.538,30.242" transform="translate(2391 1475)" fill="#002659"/>
    <path id="Path_139" data-name="Path 139" d="M44.561,439.379c-23.332-4.051-31.894-29.354-32.247-30.43l2.693-.885c.082.247,8.4,24.765,30.039,28.522Z" transform="translate(2391 1475)" fill="#002659"/>
    <path id="Path_140" data-name="Path 140" d="M5.8,397.808,0,403.84H11.606Z" transform="translate(2391 1475)" fill="#002659"/>
    <path id="Path_141" data-name="Path 141" d="M55.153,446.173l-6.81-6.552v13.1Z" transform="translate(2391 1475)" fill="#002659"/>
  </g>
</svg>
