<svg xmlns="http://www.w3.org/2000/svg" width="46.838" height="55.532" viewBox="0 0 46.838 55.532">
  <g id="Group_290" data-name="Group 290" transform="translate(-2155.085 -1455)">
    <path id="Path_152" data-name="Path 152" d="M27.994,0a30.437,30.437,0,0,0-2.138,13.085c.926,16.57,14.84,29.267,31.078,28.36a28.859,28.859,0,0,0,10.989-2.839Z" transform="translate(2134 1455)" fill="#002659"/>
    <path id="Path_153" data-name="Path 153" d="M44.915,55.532H22.669a1.586,1.586,0,0,1-1.391-2.348L35.142,27.878a1.585,1.585,0,0,1,2.9.264l8.382,25.3a1.586,1.586,0,0,1-1.5,2.085M24.777,52.7H43.185L36.249,31.758ZM37.629,29.238l0,0,0,0" transform="translate(2134 1455)" fill="#002659"/>
    <path id="Path_154" data-name="Path 154" d="M64.5,38.174H61.119V5.782h-32.5V2.663H64.5Z" transform="translate(2134 1455)" fill="#002659"/>
    <path id="Path_155" data-name="Path 155" d="M42.12,26.6,39.814,24.31l21.874-21.2L63.994,5.4Z" transform="translate(2134 1455)" fill="#002659"/>
    <rect id="Rectangle_2766" data-name="Rectangle 2766" width="2.835" height="19.158" transform="translate(2162.836 1496.502) rotate(-44.596)" fill="#002659"/>
    <rect id="Rectangle_2767" data-name="Rectangle 2767" width="19.407" height="2.835" transform="translate(2158.102 1507.531) rotate(-38.742)" fill="#002659"/>
    <path id="Path_156" data-name="Path 156" d="M66.531,3.8a3.735,3.735,0,0,1-7.446,0,3.735,3.735,0,0,1,7.446,0" transform="translate(2134 1455)" fill="#002659"/>
  </g>
</svg>
