<svg id="Component_23_1" data-name="Component 23 – 1" xmlns="http://www.w3.org/2000/svg" width="112" height="112" viewBox="0 0 112 112">
  <path id="Subtraction_2" data-name="Subtraction 2" d="M4022.394,329h-17l-1.462-15.12a41.757,41.757,0,0,1-11.829-4.8l-11.766,9.448-12.02-12.02,9.5-11.53a41.7,41.7,0,0,1-5.005-11.972L3958,281.393v-17l14.814-1.433a41.7,41.7,0,0,1,5.013-11.968l-9.36-11.656,12.02-12.02,11.638,9.585a41.684,41.684,0,0,1,11.829-4.787L4005.607,217h17l1.481,15.318a41.741,41.741,0,0,1,11.472,4.868l12.1-9.72,12.02,12.021-9.949,12.081a41.716,41.716,0,0,1,4.65,11.333L4070,264.607v17l-15.62,1.51a41.728,41.728,0,0,1-4.656,11.332l9.808,12.215-12.02,12.02-11.972-9.86a41.746,41.746,0,0,1-11.475,4.863L4022.394,329Zm-8.786-80a24,24,0,1,0,24,24A24.027,24.027,0,0,0,4013.607,249Z" transform="translate(-3958 -217)"/>
</svg>
