<svg xmlns="http://www.w3.org/2000/svg" width="67.101" height="31.947" viewBox="0 0 67.101 31.947">
  <g id="Group_232" data-name="Group 232" transform="translate(-2397.597 -2005.963)">
    <path id="Path_142" data-name="Path 142" d="M39.6,562.91l-.072-2.834a14.646,14.646,0,0,0,6.44-1.513,3.066,3.066,0,0,1,.979-.34l1.347-.416.286-4.863a1.9,1.9,0,0,0-.41-1.167l-.989-1.211a5.076,5.076,0,0,1-1.088-3.215v-1.485a5.472,5.472,0,0,1,.227-1.566l1.388-4.626a2.057,2.057,0,0,0-.136-1.514L45.7,534.585a1.354,1.354,0,0,0-1.177-.788H39.711v-2.834h4.811a3.593,3.593,0,0,1,3.127,2.093l1.873,3.575a5.462,5.462,0,0,1,.359,4.019l-1.387,4.626a2.049,2.049,0,0,0-.086.59v1.485a1.913,1.913,0,0,0,.41,1.211l.99,1.211a5.078,5.078,0,0,1,1.088,3.215l0,.1-.41,6.966-3.176.967a1.183,1.183,0,0,0-.378.119A16.476,16.476,0,0,1,39.6,562.91" transform="translate(2391 1475)"/>
    <path id="Path_143" data-name="Path 143" d="M73.685,540.12H49.2v-2.834H70.639v-1.637h3.046Z" transform="translate(2391 1475)"/>
    <path id="Path_144" data-name="Path 144" d="M72.281,543.733h-12.1a1.417,1.417,0,1,1,0-2.834h12.1a1.417,1.417,0,1,1,0,2.834" transform="translate(2391 1475)"/>
    <path id="Path_145" data-name="Path 145" d="M66.231,545.364h0a1.417,1.417,0,0,1-1.417-1.417v-3.826a1.417,1.417,0,1,1,2.834,0v3.826a1.417,1.417,0,0,1-1.417,1.417" transform="translate(2391 1475)"/>
    <path id="Path_146" data-name="Path 146" d="M40.7,562.91a16.467,16.467,0,0,1-7.33-1.769,1.147,1.147,0,0,0-.377-.117l-.142-.033-3.034-.935-.414-7.068a5.078,5.078,0,0,1,1.088-3.215l.991-1.211a1.913,1.913,0,0,0,.409-1.211v-1.485a2.059,2.059,0,0,0-.086-.59l-1.387-4.626a5.467,5.467,0,0,1,.359-4.019l1.873-3.575a3.593,3.593,0,0,1,3.127-2.093h4.811V533.8H35.773a1.355,1.355,0,0,0-1.177.788l-1.872,3.575a2.057,2.057,0,0,0-.136,1.514l1.388,4.626a5.443,5.443,0,0,1,.227,1.566v1.485a5.07,5.07,0,0,1-1.088,3.215l-.99,1.211a1.906,1.906,0,0,0-.409,1.167L32,557.807l1.346.416a3.068,3.068,0,0,1,.977.339,14.648,14.648,0,0,0,6.442,1.514Z" transform="translate(2391 1475)"/>
    <path id="Path_147" data-name="Path 147" d="M30.915,540.12H6.61v-4.471H9.634v1.637H30.915Z" transform="translate(2391 1475)"/>
    <path id="Path_148" data-name="Path 148" d="M20.113,543.733H8.014a1.417,1.417,0,1,1,0-2.834h12.1a1.417,1.417,0,1,1,0,2.834" transform="translate(2391 1475)"/>
    <path id="Path_149" data-name="Path 149" d="M14.064,545.364h0a1.417,1.417,0,0,1-1.417-1.417v-3.826a1.417,1.417,0,1,1,2.834,0v3.826a1.417,1.417,0,0,1-1.417,1.417" transform="translate(2391 1475)"/>
    <path id="Path_150" data-name="Path 150" d="M58.08,562.241l-9.687-17.679a1.2,1.2,0,0,0-1.028-.668H33.054a1.2,1.2,0,0,0-1.029.668l-9.686,17.679a1.11,1.11,0,0,1-1.712.419h0a1.7,1.7,0,0,1-.346-2.076L30.7,541.568a1.2,1.2,0,0,1,1.029-.669H48.689a1.194,1.194,0,0,1,1.028.669l10.421,19.015a1.7,1.7,0,0,1-.346,2.076h0a1.11,1.11,0,0,1-1.712-.419" transform="translate(2391 1475)"/>
    <path id="Path_151" data-name="Path 151" d="M40.125,558.819a4.55,4.55,0,1,1,4.551-4.55,4.555,4.555,0,0,1-4.551,4.55m0-6.266a1.716,1.716,0,1,0,1.716,1.716,1.717,1.717,0,0,0-1.716-1.716" transform="translate(2391 1475)"/>
  </g>
</svg>
